# xmcd
#
# Track frame offsets:
#  150
#  43775
#  77745
#  97523
#  129498
#  148580
#  167373
#  186170
#  220298
#  237354
#  254079
#  271013
#  295540
#  306218
#  331880
#
# Disc length: 4637 seconds
#
# Revision: 0
# Processed by: cddbd v1.4PL0 Copyright (c) Steve Scherf et al.
# Submitted via: AltoMP3_Maker 3.0
#
DISCID=cd121b0f
DTITLE=Ten years after - Ten Years after, the very best album ever
DYEAR=1900
DGENRE=
TTITLE0=I'm going home
TTITLE1=Love like a man
TTITLE2=It's getting harder
TTITLE3=Good mornign little schoolgirl
TTITLE4=Working on the road
TTITLE5=Sweet little sixteen
TTITLE6=Me and my baby
TTITLE7=50000 miles beneath my brain
TTITLE8=Rock and roll music to the world
TTITLE9=I'd love to change the world
TTITLE10=I'm going on
TTITLE11=I woke up this morning
TTITLE12=Year 3000 blues
TTITLE13=One of rhese days
TTITLE14=Stoned woman
EXTD=
EXTT0=
EXTT1=
EXTT2=
EXTT3=
EXTT4=
EXTT5=
EXTT6=
EXTT7=
EXTT8=
EXTT9=
EXTT10=
EXTT11=
EXTT12=
EXTT13=
EXTT14=
PLAYORDER=
